<svg width="512" height="501" viewBox="0 0 512 501" fill="none" xmlns="http://www.w3.org/2000/svg">
<path d="M262.145 282.261L363.415 266.761C367.215 266.191 371.225 267.231 374.345 269.951C379.985 274.871 380.585 283.451 375.665 289.091L195.285 496.161L193.695 497.691C187.935 502.461 179.375 501.651 174.615 495.891L3.27462 288.821C0.864615 285.831 -0.31538 281.861 0.40462 277.791C1.72462 270.451 8.76462 265.561 16.0946 266.881L101.925 282.321C104.015 264.341 108.495 244.731 115.285 224.551C132.975 171.891 166.695 114.591 215.615 71.2306C265.015 27.4406 329.825 -2.21943 409.225 1.05057C438.145 2.22057 468.965 7.80057 501.575 18.6806C506.855 20.0206 511.025 24.5006 511.705 30.2306C512.585 37.6706 507.265 44.4206 499.835 45.2906C399.755 57.2206 341.725 95.8206 308.035 143.541C277.915 186.191 266.685 236.731 262.145 282.261V282.261Z" fill="#ED4899"/>
</svg>
