<svg width="500" height="512" viewBox="0 0 500 512" fill="none" xmlns="http://www.w3.org/2000/svg">
<path d="M281.46 249.66L265.96 148.39C265.39 144.59 266.43 140.58 269.15 137.46C274.07 131.82 282.65 131.22 288.29 136.14L495.36 316.52L496.89 318.11C501.66 323.87 500.85 332.43 495.09 337.19L288.02 508.53C285.03 510.94 281.06 512.12 276.99 511.4C269.65 510.08 264.76 503.04 266.08 495.71L281.52 409.88C263.54 407.79 243.93 403.31 223.75 396.52C171.09 378.83 113.79 345.11 70.43 296.19C26.64 246.79 -3.01996 181.98 0.250039 102.58C1.42004 73.66 7.00004 42.84 17.88 10.23C19.22 4.94995 23.7 0.779954 29.43 0.0999539C36.87 -0.780046 43.62 4.53995 44.49 11.97C56.42 112.05 95.0201 170.08 142.74 203.77C185.39 233.89 235.93 245.12 281.46 249.66V249.66Z" fill="#ED4899"/>
</svg>
